<?xml version="1.0" encoding="utf-8"?>
<!-- Generator: Adobe Illustrator 28.4.1, SVG Export Plug-In . SVG Version: 6.00 Build 0)  -->
<svg version="1.1" id="Layer_1" xmlns="http://www.w3.org/2000/svg" xmlns:xlink="http://www.w3.org/1999/xlink" x="0px" y="0px"
	 width="1080" height="1080" viewBox="0 0 1080 1080" style="enable-background:new 0 0 1080 1080;" xml:space="preserve">
<style type="text/css">
	.st0{fill:none;stroke:#ED1C24;stroke-width:4.9344;stroke-miterlimit:10;}
	.st1{fill:none;stroke:#ED1C24;stroke-width:8.4758;stroke-miterlimit:10;}
	.st2{fill:none;stroke:#ED1C24;stroke-width:5.1123;stroke-miterlimit:10;}
</style>
<path d="M246.2,499.4c26.1-7.8,55.4-7,82.1-3c18.5,2.8,76.3,11.6,107.4,45c5.6,6,21.8,25.1,49.4,34.4c5.2,1.7,9.5,2.7,12.3,3.3
	l7.5,1.5c-5.9-11.5-11.7-22.7-17.4-33.7l-0.4-0.2c0-0.1,0.1-0.2,0.1-0.3c-42.4-82.3-79.1-153.6-123.6-240.2c-1.8,2-3.6,4-5.5,6
	c1.6,3.4,3.7,8.2,6.1,14.1c12.2,31.1,25.7,65.5,12.5,87.1c-20.1,32.7-93.7,27.3-121.5,9.8c-25.3-15.9-12.5-46.4,0.3-66.1
	c10.2-15.8,22.2-30.4,35.6-43.7c5.6-5.6,11.4-11.5,17.7-16.8c24.1-20.7,56.3-28.2,83.5-9.4c22.4,15.5,40.1,38.9,53.5,62.3
	c9.3,16.2,38.5,66.9,31.8,112c-1.2,8.1-6,32.7,3.9,60.1c1.9,5.1,3.8,9.2,5.1,11.7l3.5,6.9c5.3-11.8,10.5-23.3,15.6-34.6l-0.1-0.4
	c0.1,0,0.2-0.1,0.3-0.1c37.9-84.4,70.8-157.6,110.7-246.3c-2.7-0.2-5.4-0.4-8.1-0.5c-1.7,3.4-4.1,8.1-7.2,13.5
	c-16.7,28.9-35.1,60.9-60.3,64.1c-38.1,4.7-79.7-56.2-83.4-88.9c-3.3-29.6,28.5-38.7,51.9-41c18.7-1.9,37.7-1.6,56.4,0.5
	c7.9,0.9,16.1,1.8,24.2,3.3c31.2,6,57.1,26.4,59.3,59.4c1.8,27.2-5.5,55.6-15.4,80.7c-6.8,17.4-28.3,71.8-67.8,94.7
	c-7.1,4.1-29.3,15.7-44.5,40.5c-2.9,4.6-4.8,8.7-6,11.3l-3.2,7c12.5-3.2,24.8-6.3,36.8-9.4l0.3-0.3c0.1,0.1,0.2,0.1,0.3,0.2
	c89.7-23,167.3-42.9,261.6-67c-1.5-2.2-3.1-4.4-4.6-6.7c-3.7,0.8-8.8,1.8-15.1,2.8c-33,5-69.6,10.5-87.7-7.2
	c-27.4-26.8-5.8-97.4,17.5-120.6c21.1-21.1,48-1.8,64.4,15c13.1,13.5,24.7,28.4,34.7,44.4c4.2,6.7,8.7,13.7,12.5,21
	c14.8,28.1,15,61.1-9.4,83.4c-20.1,18.4-46.9,30.4-72.7,38.3c-17.9,5.5-73.8,22.6-116.3,6.1c-7.6-3-30.5-13.1-59.5-9.6
	c-5.4,0.7-9.8,1.7-12.5,2.4l-7.5,1.9c10.3,7.8,20.4,15.4,30.3,22.9l0.4,0c0,0.1,0,0.2,0,0.3c73.9,55.8,137.9,104.1,215.5,162.7
	c0.8-2.6,1.5-5.2,2.3-7.8c-2.9-2.4-6.9-5.8-11.6-10.1c-24.5-22.7-51.6-47.8-49-73.1c3.9-38.1,72.5-65.2,105.2-61.5
	c29.7,3.3,31.4,36.4,28.4,59.7c-2.3,18.7-6.8,37.1-13.1,54.8c-2.6,7.5-5.3,15.3-8.6,22.8c-12.8,29.1-38.5,49.8-71.1,44.6
	c-26.9-4.3-53-17.7-75.3-32.9c-15.4-10.5-63.7-43.5-77.3-87.1c-2.4-7.8-8.8-32-29.6-52.4c-3.9-3.8-7.4-6.6-9.7-8.3l-6.1-4.6
	c0.3,12.9,0.7,25.6,1,37.9l0.3,0.3c-0.1,0.1-0.2,0.1-0.3,0.2c2.4,92.5,4.6,172.7,7.1,270c2.5-1,5-2,7.5-3c0-3.8,0.2-9,0.7-15.3
	c2.5-33.3,5.2-70.2,26.6-83.9c32.3-20.7,96.2,16,113.7,43.9c15.9,25.3-8.9,47.2-29,59.5c-16.1,9.8-33.2,17.8-51,24
	c-7.5,2.6-15.3,5.4-23.2,7.5c-30.7,8.2-62.9,1-79.3-27.8c-13.4-23.7-19.2-52.5-21.2-79.4c-1.4-18.6-5.7-76.9,19.9-114.7
	c4.6-6.8,19.6-26.8,22.6-55.8c0.6-5.4,0.6-9.9,0.5-12.7l-0.2-7.7c-9.9,8.3-19.6,16.5-29,24.4l-0.1,0.4c-0.1,0-0.2,0-0.3-0.1
	C481.8,655.2,420.4,706.9,346,769.5c2.4,1.3,4.7,2.7,7.1,4c3-2.3,7.2-5.5,12.4-9c27.6-18.8,58.1-39.7,82.1-31.5
	c36.3,12.3,47.4,85.2,36.6,116.3c-9.9,28.2-42.4,22.5-64.5,14.4c-17.7-6.4-34.6-14.9-50.5-24.9c-6.7-4.2-13.7-8.6-20.3-13.5
	c-25.5-18.9-40-48.6-27.7-79.3c10.1-25.3,29.1-47.7,48.9-66.1c13.7-12.7,56.6-52.4,102.1-55.9c8.2-0.6,33.2-1.4,57.7-17.2
	c4.6-2.9,8.1-5.7,10.3-7.6l5.9-4.9c-12.6-2.5-25.1-5-37.2-7.5l-0.4,0.2c-0.1-0.1-0.1-0.2-0.2-0.3c-90.7-18.2-169.4-34-264.8-53.1
	c0.4,2.7,0.9,5.3,1.3,8c3.6,0.9,8.8,2.2,14.8,4c31.9,9.8,67.2,20.7,75.9,44.6c13,36.1-37.1,90.2-68.1,101.1
	c-28.2,9.9-44-19.2-51.5-41.5c-6-17.8-9.9-36.4-12-55.1c-0.9-7.9-1.9-16.1-2.2-24.3C200.4,538.7,214.5,508.9,246.2,499.4z
	 M581.7,557.8l-0.7-27.6c-0.1-4-2-7.7-5.2-10.1l-22-16.6c-3.2-2.4-7.3-3.2-11.2-2.3L516,508c-3.9,1-7.1,3.7-8.7,7.3l-11.3,25.1
	c-1.6,3.6-1.5,7.8,0.3,11.4l12.6,24.5c1.8,3.6,5.2,6.1,9.1,6.9l27,5.5c3.9,0.8,8-0.2,11-2.8l21.1-17.7
	C580.1,565.6,581.8,561.7,581.7,557.8z"/>
</svg>
